<?xml version="1.0" standalone="no"?>
<!DOCTYPE svg PUBLIC "-//W3C//DTD SVG 20010904//EN"
 "http://www.w3.org/TR/2001/REC-SVG-20010904/DTD/svg10.dtd">
<svg version="1.0" xmlns="http://www.w3.org/2000/svg"
 width="128.000000pt" height="128.000000pt" viewBox="0 0 128.000000 128.000000"
 preserveAspectRatio="xMidYMid meet">

<g transform="translate(0.000000,128.000000) scale(0.100000,-0.100000)"
fill="#000000" stroke="none">
<path d="M293 1178 c-36 -57 -73 -120 -81 -140 -13 -32 -20 -37 -51 -40 l-36
-3 0 -478 0 -479 24 -19 c21 -17 41 -19 211 -19 l189 0 20 26 c21 27 21 34 19
498 l-3 471 -45 0 c-50 0 -63 -22 -22 -40 19 -9 22 -17 22 -72 l0 -63 -115 0
-115 0 -25 56 c-14 31 -25 60 -25 64 0 4 14 10 31 14 40 8 36 38 -6 46 -19 4
-29 11 -27 21 2 8 35 63 73 122 39 60 68 115 65 123 -12 32 -40 9 -103 -88z
m-74 -272 c38 -86 38 -88 -6 -84 l-38 3 -3 63 c-4 77 17 85 47 18z m139 -339
c45 -111 87 -208 91 -216 11 -17 41 -7 41 12 0 11 -59 161 -157 395 -4 9 20
12 101 12 l106 0 0 -294 c0 -293 0 -295 -22 -310 -18 -13 -52 -16 -165 -16
-130 0 -145 2 -163 20 -19 19 -20 33 -20 310 l0 290 53 0 52 0 83 -203z m180
-487 l-3 -25 -180 0 -180 0 -3 25 -3 25 186 0 186 0 -3 -25z"/>
<path d="M254 489 c-3 -6 0 -17 7 -25 18 -17 44 -2 36 20 -7 18 -33 21 -43 5z"/>
<path d="M339 304 c-9 -11 -9 -18 -1 -26 14 -14 42 -3 42 16 0 20 -27 27 -41
10z"/>
<path d="M385 991 c-9 -16 3 -31 26 -31 14 0 19 6 17 17 -4 20 -33 29 -43 14z"/>
<path d="M950 885 c-44 -34 -47 -35 -142 -35 l-98 0 0 -25 c0 -14 -9 -43 -20
-65 -19 -37 -20 -59 -20 -345 0 -339 3 -359 62 -395 29 -18 50 -20 181 -20
166 0 194 8 227 63 19 30 20 52 20 351 0 304 -1 320 -21 352 -11 18 -19 39
-18 46 4 34 -2 38 -62 38 -60 0 -60 0 -45 22 11 16 13 25 4 35 -15 18 -17 17
-68 -22z m118 -97 c34 -34 15 -38 -153 -38 -91 0 -165 3 -165 6 0 3 5 14 10
25 10 17 23 19 153 19 98 0 147 -4 155 -12z m22 -95 c0 -5 -9 -22 -20 -40 -29
-48 -70 -65 -159 -64 -69 0 -103 -4 -168 -24 -22 -7 -23 -5 -23 64 l0 71 185
0 c102 0 185 -3 185 -7z m18 -355 l-3 -93 -135 0 c-134 0 -135 0 -192 -33
l-58 -32 0 150 c0 135 2 152 19 169 28 28 85 41 173 40 81 -1 149 20 178 56
14 16 15 10 18 -73 1 -51 1 -134 0 -184z m-90 -144 l92 -7 0 -44 c0 -33 -6
-50 -25 -68 -23 -24 -29 -25 -168 -25 -125 0 -148 2 -167 18 -40 33 0 87 89
118 42 15 59 16 179 8z"/>
<path d="M1000 455 c-15 -18 -5 -35 21 -35 12 0 19 7 19 19 0 24 -25 34 -40
16z"/>
<path d="M820 430 c-29 -29 -26 -74 6 -99 35 -27 59 -26 89 4 46 45 19 115
-45 115 -17 0 -39 -9 -50 -20z m65 -50 c0 -22 -29 -18 -33 3 -3 14 1 18 15 15
10 -2 18 -10 18 -18z"/>
</g>
</svg>
